HIERARCHY
ROOT joint_0
{
	OFFSET 0.000000 0.000000 0.000000
	CHANNELS 6 Xposition Yposition Zposition Zrotation Yrotation Xrotation 
	JOINT joint_1
	{
		OFFSET 6.590088 -1.122192 114.019043
		CHANNELS 3 Zrotation Yrotation Xrotation
		JOINT joint_2
		{
			OFFSET -5.956055 -0.820435 104.151001
			CHANNELS 3 Zrotation Yrotation Xrotation
			JOINT joint_3
			{
				OFFSET -7.343506 -1.103027 103.942993
				CHANNELS 3 Zrotation Yrotation Xrotation
				JOINT joint_4
				{
					OFFSET 3.109131 -2.857056 147.715942
					CHANNELS 3 Zrotation Yrotation Xrotation
					JOINT joint_5
					{
						OFFSET 28.592285 -2.852295 87.703979
						CHANNELS 3 Zrotation Yrotation Xrotation
						End Site
						{
							OFFSET 0.000000 0.000000 0.000000
						}
					}
				}
				JOINT joint_6
				{
					OFFSET -0.332520 -33.687378 82.401978
					CHANNELS 3 Zrotation Yrotation Xrotation
					JOINT joint_7
					{
						OFFSET -7.397461 -168.719177 -22.750977
						CHANNELS 3 Zrotation Yrotation Xrotation
						JOINT joint_8
						{
							OFFSET 17.065918 -24.903137 -272.721069
							CHANNELS 3 Zrotation Yrotation Xrotation
							JOINT joint_9
							{
								OFFSET 33.311279 -37.031616 -278.192993
								CHANNELS 3 Zrotation Yrotation Xrotation
								End Site
								{
									OFFSET 0.000000 0.000000 0.000000
								}
							}
						}
					}
				}
				JOINT joint_10
				{
					OFFSET 3.914307 30.461670 83.552979
					CHANNELS 3 Zrotation Yrotation Xrotation
					JOINT joint_11
					{
						OFFSET 15.543701 166.845459 -30.963013
						CHANNELS 3 Zrotation Yrotation Xrotation
						JOINT joint_12
						{
							OFFSET 35.734863 35.017700 -269.786011
							CHANNELS 3 Zrotation Yrotation Xrotation
							JOINT joint_13
							{
								OFFSET 70.506592 13.977783 -273.320007
								CHANNELS 3 Zrotation Yrotation Xrotation
								End Site
								{
									OFFSET 0.000000 0.000000 0.000000
								}
							}
						}
					}
				}
			}
		}
	}
	JOINT joint_14
	{
		OFFSET -0.314697 -95.093994 -116.004028
		CHANNELS 3 Zrotation Yrotation Xrotation
		JOINT joint_15
		{
			OFFSET -22.490723 2.017883 -455.510986
			CHANNELS 3 Zrotation Yrotation Xrotation
			JOINT joint_16
			{
				OFFSET -46.427490 7.144104 -496.360985
				CHANNELS 3 Zrotation Yrotation Xrotation
				JOINT joint_17
				{
					OFFSET 209.055420 -37.122803 -85.191002
					CHANNELS 3 Zrotation Yrotation Xrotation
					End Site
					{
						OFFSET 0.000000 0.000000 0.000000
					}
				}
			}
		}
	}
	JOINT joint_18
	{
		OFFSET 5.652832 94.642578 -116.244019
		CHANNELS 3 Zrotation Yrotation Xrotation
		JOINT joint_19
		{
			OFFSET -12.379883 -7.332642 -455.843994
			CHANNELS 3 Zrotation Yrotation Xrotation
			JOINT joint_20
			{
				OFFSET -45.227051 -8.172241 -496.457985
				CHANNELS 3 Zrotation Yrotation Xrotation
				JOINT joint_21
				{
					OFFSET 210.522949 -11.530396 -88.809004
					CHANNELS 3 Zrotation Yrotation Xrotation
					End Site
					{
						OFFSET 0.000000 0.000000 0.000000
					}
				}
			}
		}
	}
}
MOTION
Frames: 13
Frame Time: 0.016667
-2835.687744 946.694397 1182.938965 -3.393002 -2.157043 -0.563031 -0.420378 2.437701 -0.082055 -0.440353 -0.441777 0.025791 -0.429676 0.536345 0.033954 0.020187 3.912803 0.408815 0.000000 0.000000 0.000000 -0.503904 -0.715069 1.134196 0.363090 -0.672442 -2.490712 0.859563 0.523982 7.208177 0.000000 0.000000 0.000000 3.845175 0.875394 0.829791 0.042349 0.454625 -2.223760 0.846780 1.317870 3.009669 0.000000 0.000000 0.000000 -0.766411 -0.994303 -0.486398 -0.684577 2.099558 -1.908103 -0.881852 2.437134 0.074923 0.000000 0.000000 0.000000 1.396403 -0.097374 -1.737009 1.298243 0.938903 1.167550 1.327705 1.951418 0.665782 0.000000 0.000000 0.000000 
-2835.687988 946.636414 1182.902954 -3.396484 -2.165447 -0.565909 -0.423452 2.441394 -0.100384 -0.442202 -0.443392 0.029786 -0.431977 0.539051 0.030912 0.026137 3.916603 0.391160 0.000000 0.000000 0.000000 -0.492357 -0.718438 1.177482 0.361131 -0.670726 -2.522962 0.859269 0.535174 7.216921 0.000000 0.000000 0.000000 3.838955 0.873641 0.828120 0.040213 0.452380 -2.211991 0.844240 1.339202 2.995319 0.000000 0.000000 0.000000 -0.764589 -1.004199 -0.475494 -0.681762 2.133923 -1.913784 -0.880361 2.427234 0.073771 0.000000 0.000000 0.000000 1.400433 -0.106429 -1.742344 1.300908 0.970968 1.187234 1.332612 1.945423 0.667516 0.000000 0.000000 0.000000 
-2835.686523 946.582397 1182.865967 -3.399161 -2.174759 -0.568289 -0.429147 2.445216 -0.117413 -0.446795 -0.445260 0.033558 -0.436924 0.541940 0.029020 0.032173 3.923531 0.373755 0.000000 0.000000 0.000000 -0.481298 -0.725473 1.216317 0.358709 -0.673046 -2.551462 0.855526 0.571440 7.224033 0.000000 0.000000 0.000000 3.833782 0.873037 0.822302 0.038208 0.450915 -2.202267 0.846403 1.380057 2.995123 0.000000 0.000000 0.000000 -0.763487 -1.018305 -0.466433 -0.679766 2.179010 -1.918160 -0.879742 2.411145 0.071167 0.000000 0.000000 0.000000 1.403889 -0.108405 -1.749846 1.303178 0.991829 1.209255 1.337110 1.942691 0.669255 0.000000 0.000000 0.000000 
-2835.673828 946.527527 1182.828979 -3.399086 -2.186436 -0.570618 -0.439890 2.449334 -0.131971 -0.456776 -0.448030 0.034888 -0.446941 0.546412 0.028877 0.038121 3.932683 0.357094 0.000000 0.000000 0.000000 -0.469210 -0.739352 1.246683 0.355880 -0.682859 -2.569426 0.846326 0.645607 7.226842 0.000000 0.000000 0.000000 3.832276 0.874018 0.812246 0.035792 0.450138 -2.195281 0.854488 1.450568 3.011679 0.000000 0.000000 0.000000 -0.763821 -1.037233 -0.460035 -0.679432 2.240817 -1.918846 -0.880692 2.384916 0.066126 0.000000 0.000000 0.000000 1.405916 -0.096811 -1.759240 1.304436 0.993265 1.234265 1.340492 1.945752 0.670841 0.000000 0.000000 0.000000 
-2835.659424 946.475708 1182.788940 -3.398255 -2.199248 -0.572282 -0.453453 2.453250 -0.146069 -0.469600 -0.449312 0.036680 -0.459793 0.549200 0.029809 0.043874 3.946132 0.341714 0.000000 0.000000 0.000000 -0.456534 -0.756447 1.272007 0.352574 -0.696166 -2.582941 0.833681 0.744233 7.227371 0.000000 0.000000 0.000000 3.831600 0.876550 0.798844 0.033517 0.450720 -2.190976 0.867278 1.540481 3.042361 0.000000 0.000000 0.000000 -0.764965 -1.060278 -0.455570 -0.680014 2.313727 -1.918134 -0.882614 2.351481 0.059413 0.000000 0.000000 0.000000 1.407416 -0.078014 -1.770788 1.305349 0.983810 1.261236 1.343497 1.951464 0.672414 0.000000 0.000000 0.000000 
-2835.658936 946.438721 1182.749023 -3.397424 -2.211243 -0.572353 -0.466088 2.457385 -0.158739 -0.481547 -0.450421 0.039101 -0.471949 0.552901 0.028710 0.048667 3.958548 0.329123 0.000000 0.000000 0.000000 -0.445552 -0.770454 1.301257 0.349519 -0.706005 -2.607020 0.823630 0.836213 7.240344 0.000000 0.000000 0.000000 3.826876 0.880000 0.783585 0.033342 0.453512 -2.190178 0.882678 1.620723 3.085038 0.000000 0.000000 0.000000 -0.766314 -1.086126 -0.454074 -0.680985 2.388392 -1.916512 -0.884881 2.318814 0.052697 0.000000 0.000000 0.000000 1.409391 -0.060848 -1.786065 1.306549 0.974234 1.290083 1.346923 1.958169 0.674217 0.000000 0.000000 0.000000 
-2835.683838 946.427429 1182.707031 -3.398487 -2.222967 -0.570338 -0.476272 2.465306 -0.170013 -0.491188 -0.453007 0.041140 -0.481734 0.556661 0.027925 0.053356 3.972332 0.316977 0.000000 0.000000 0.000000 -0.437489 -0.780150 1.336400 0.346824 -0.710886 -2.649787 0.817947 0.914379 7.271979 0.000000 0.000000 0.000000 3.813223 0.885693 0.764444 0.036756 0.461312 -2.198092 0.902404 1.681798 3.148245 0.000000 0.000000 0.000000 -0.767305 -1.113098 -0.457003 -0.681926 2.461075 -1.913075 -0.886929 2.288090 0.046417 0.000000 0.000000 0.000000 1.412619 -0.047436 -1.806715 1.308636 0.968552 1.321562 1.351513 1.964077 0.676464 0.000000 0.000000 0.000000 
-2835.721924 946.429016 1182.663940 -3.399313 -2.234093 -0.566588 -0.485944 2.473743 -0.181789 -0.500156 -0.455628 0.045741 -0.491131 0.561070 0.025595 0.057395 3.986533 0.306859 0.000000 0.000000 0.000000 -0.429730 -0.786363 1.374373 0.344384 -0.711784 -2.702676 0.814962 0.984804 7.315833 0.000000 0.000000 0.000000 3.795488 0.892827 0.743282 0.042381 0.471894 -2.209913 0.924721 1.732275 3.223533 0.000000 0.000000 0.000000 -0.768709 -1.142336 -0.462863 -0.683461 2.535268 -1.908815 -0.889522 2.257226 0.039893 0.000000 0.000000 0.000000 1.416067 -0.035331 -1.831049 1.310767 0.962594 1.354706 1.356279 1.970418 0.678808 0.000000 0.000000 0.000000 
-2835.756836 946.419678 1182.619995 -3.396540 -2.244273 -0.561509 -0.495055 2.480465 -0.192001 -0.508800 -0.458017 0.047647 -0.499894 0.564419 0.025144 0.060533 4.000870 0.299503 0.000000 0.000000 0.000000 -0.422673 -0.783714 1.408993 0.342581 -0.704216 -2.753482 0.815363 1.037454 7.367572 0.000000 0.000000 0.000000 3.781168 0.899331 0.722902 0.047877 0.480331 -2.211757 0.942204 1.770985 3.282622 0.000000 0.000000 0.000000 -0.770984 -1.174569 -0.467992 -0.685681 2.613918 -1.907008 -0.893120 2.226338 0.032957 0.000000 0.000000 0.000000 1.418281 -0.023971 -1.855298 1.311699 0.956160 1.386411 1.359743 1.977569 0.680648 0.000000 0.000000 0.000000 
-2835.786377 946.391357 1182.577026 -3.386980 -2.252009 -0.554702 -0.504627 2.482787 -0.202241 -0.517914 -0.459355 0.048885 -0.509106 0.567376 0.024619 0.062115 4.016437 0.297072 0.000000 0.000000 0.000000 -0.414169 -0.768545 1.439034 0.342082 -0.684399 -2.801586 0.821654 1.060331 7.434232 0.000000 0.000000 0.000000 3.773772 0.903858 0.704623 0.052479 0.483974 -2.196842 0.951761 1.795933 3.314066 0.000000 0.000000 0.000000 -0.775246 -1.212722 -0.470928 -0.689492 2.700043 -1.909891 -0.898877 2.194421 0.024964 0.000000 0.000000 0.000000 1.417826 -0.012954 -1.879264 1.310087 0.945168 1.416341 1.360484 1.987116 0.681476 0.000000 0.000000 0.000000 
-2835.812988 946.351074 1182.532959 -3.373459 -2.258812 -0.546346 -0.513974 2.484160 -0.212574 -0.526868 -0.462164 0.049259 -0.517964 0.570944 0.025709 0.062873 4.031421 0.297066 0.000000 0.000000 0.000000 -0.406007 -0.744802 1.465593 0.342239 -0.656375 -2.847433 0.831329 1.065011 7.508438 0.000000 0.000000 0.000000 3.770319 0.907476 0.687200 0.056836 0.485111 -2.172302 0.956443 1.809060 3.329215 0.000000 0.000000 0.000000 -0.780428 -1.253644 -0.473319 -0.694043 2.790309 -1.915316 -0.905697 2.162267 0.016499 0.000000 0.000000 0.000000 1.415903 -0.002672 -1.903582 1.307022 0.933538 1.445268 1.359712 1.997547 0.681715 0.000000 0.000000 0.000000 
-2835.819580 946.302002 1182.488037 -3.362219 -2.267158 -0.537653 -0.520506 2.482652 -0.220963 -0.532978 -0.463122 0.050766 -0.524241 0.573341 0.024621 0.063749 4.047096 0.296683 0.000000 0.000000 0.000000 -0.400165 -0.717633 1.492925 0.341370 -0.625418 -2.885324 0.838651 1.071400 7.567498 0.000000 0.000000 0.000000 3.768855 0.911482 0.674734 0.060926 0.486521 -2.146032 0.958158 1.813007 3.334918 0.000000 0.000000 0.000000 -0.784305 -1.289688 -0.476876 -0.697469 2.876379 -1.918906 -0.911184 2.131847 0.008881 0.000000 0.000000 0.000000 1.414735 0.005876 -1.926209 1.304649 0.930750 1.471875 1.359601 2.004655 0.682051 0.000000 0.000000 0.000000 
-2835.802002 946.242188 1182.442993 -3.355667 -2.279433 -0.528838 -0.523269 2.481237 -0.227823 -0.535365 -0.464289 0.052375 -0.526789 0.574882 0.023782 0.065068 4.065914 0.295258 0.000000 0.000000 0.000000 -0.399847 -0.687376 1.519103 0.339286 -0.592625 -2.909289 0.842243 1.082306 7.603820 0.000000 0.000000 0.000000 3.770981 0.916343 0.667376 0.064760 0.488536 -2.119607 0.957067 1.806725 3.332048 0.000000 0.000000 0.000000 -0.786063 -1.318556 -0.483420 -0.699211 2.959075 -1.917430 -0.914501 2.102444 0.002323 0.000000 0.000000 0.000000 1.415111 0.011214 -1.945454 1.303699 0.945051 1.494368 1.360864 2.006283 0.682666 0.000000 0.000000 0.000000 
